<?xml version="1.0" encoding="utf-8"?>
<!-- Generator: Adobe Illustrator 13.0.2, SVG Export Plug-In . SVG Version: 6.00 Build 14948)  -->
<svg version="1.2" baseProfile="tiny" id="Layer_4" xmlns="http://www.w3.org/2000/svg" xmlns:xlink="http://www.w3.org/1999/xlink"
	 x="0px" y="0px" width="32px" height="32px" viewBox="0 0 32 32" xml:space="preserve">
<g>
	<g>
		<linearGradient id="SVGID_1_" gradientUnits="userSpaceOnUse" x1="5.4551" y1="5.4326" x2="26.5405" y2="26.5181">
			<stop  offset="0" style="stop-color:#FFFFFF"/>
			<stop  offset="1" style="stop-color:#B3B3B3"/>
		</linearGradient>
		<path fill="url(#SVGID_1_)" d="M15.997,30.892c-8.226,0-14.917-6.691-14.917-14.917c0-8.226,6.691-14.917,14.917-14.917
			s14.917,6.691,14.917,14.917C30.914,24.2,24.223,30.892,15.997,30.892L15.997,30.892z"/>
		<path d="M15.997,0.558c8.513,0,15.417,6.904,15.417,15.417c0,8.513-6.904,15.417-15.417,15.417S0.58,24.487,0.58,15.975
			C0.58,7.461,7.484,0.558,15.997,0.558 M15.997,1.558c-7.95,0-14.417,6.467-14.417,14.417c0,7.949,6.467,14.417,14.417,14.417
			c7.949,0,14.417-6.468,14.417-14.417C30.414,8.025,23.946,1.558,15.997,1.558L15.997,1.558z"/>
	</g>
	<path d="M18.273,19.905H13.34v-0.494c0-0.84,0.096-1.521,0.285-2.045c0.191-0.522,0.475-1.001,0.852-1.434
		c0.375-0.433,1.223-1.194,2.538-2.285c0.7-0.571,1.052-1.094,1.052-1.571c0-0.476-0.142-0.846-0.422-1.11
		c-0.282-0.263-0.709-0.396-1.279-0.396c-0.615,0-1.123,0.204-1.525,0.611c-0.402,0.407-0.66,1.116-0.772,2.128l-5.038-0.623
		c0.174-1.852,0.847-3.343,2.02-4.472c1.172-1.129,2.971-1.694,5.395-1.694c1.886,0,3.409,0.393,4.569,1.181
		c1.575,1.064,2.362,2.483,2.362,4.258c0,0.735-0.204,1.445-0.61,2.129c-0.407,0.684-1.237,1.519-2.492,2.506
		c-0.874,0.692-1.426,1.248-1.655,1.667C18.388,18.683,18.273,19.23,18.273,19.905z M13.172,21.216h5.284v4.66h-5.284V21.216z"/>
</g>
</svg>
