<?xml version="1.0" encoding="utf-8"?>
<!-- Generator: Adobe Illustrator 13.0.2, SVG Export Plug-In . SVG Version: 6.00 Build 14948)  -->
<svg version="1.2" baseProfile="tiny" xmlns="http://www.w3.org/2000/svg" xmlns:xlink="http://www.w3.org/1999/xlink" x="0px"
	 y="0px" width="32px" height="32px" viewBox="0 0 32 32" xml:space="preserve">
<g id="Layer_4">
	<g>
		<linearGradient id="SVGID_1_" gradientUnits="userSpaceOnUse" x1="10.8921" y1="2.7744" x2="10.8921" y2="29.606">
			<stop  offset="0" style="stop-color:#DCDCDC"/>
			<stop  offset="1" style="stop-color:#F0F0F0"/>
		</linearGradient>
		<polygon fill="url(#SVGID_1_)" stroke="#000000" points="21.174,10.472 21.174,29.605 0.61,29.605 0.61,2.774 13.805,2.774 		"/>
		<linearGradient id="SVGID_2_" gradientUnits="userSpaceOnUse" x1="10.0244" y1="5.0762" x2="19.0504" y2="14.1021">
			<stop  offset="0" style="stop-color:#A0A0A0"/>
			<stop  offset="0.382" style="stop-color:#9E9E9E"/>
			<stop  offset="0.5931" style="stop-color:#969696"/>
			<stop  offset="0.7624" style="stop-color:#888888"/>
			<stop  offset="0.9088" style="stop-color:#747474"/>
			<stop  offset="1" style="stop-color:#646464"/>
		</linearGradient>
		<polyline fill="url(#SVGID_2_)" points="20.752,12.399 20.733,10.788 13.579,3.223 11.878,3.223 11.863,12.323 		"/>
		<linearGradient id="SVGID_3_" gradientUnits="userSpaceOnUse" x1="13.8398" y1="10.2725" x2="17.5715" y2="6.5408">
			<stop  offset="0" style="stop-color:#FFFFFF"/>
			<stop  offset="0.392" style="stop-color:#FDFDFD"/>
			<stop  offset="0.6087" style="stop-color:#F5F5F5"/>
			<stop  offset="0.7825" style="stop-color:#E7E7E7"/>
			<stop  offset="0.9327" style="stop-color:#D3D3D3"/>
			<stop  offset="1" style="stop-color:#C8C8C8"/>
		</linearGradient>
		<path fill="url(#SVGID_3_)" stroke="#000000" stroke-linejoin="round" d="M13.805,2.774c0,0,0.5,4.388,0.169,7.631
			c3.63-0.33,7.2,0.066,7.2,0.066L13.805,2.774z"/>
	</g>
	<polygon fill="#E80505" stroke="#000000" points="3.757,9.262 10.821,24.729 26.07,16.856 27.98,20.721 31.235,11.747 22.278,9.4 
		24.434,13.208 12.136,19.006 	"/>
</g>
<g id="Layer_2">
</g>
</svg>
