<?xml version="1.0" encoding="utf-8"?>
<!-- Generator: Adobe Illustrator 13.0.2, SVG Export Plug-In . SVG Version: 6.00 Build 14948)  -->
<svg version="1.2" baseProfile="tiny" id="Layer_4" xmlns="http://www.w3.org/2000/svg" xmlns:xlink="http://www.w3.org/1999/xlink"
	 x="0px" y="0px" width="32px" height="32px" viewBox="0 0 32 32" xml:space="preserve">
<g>
	<linearGradient id="SVGID_1_" gradientUnits="userSpaceOnUse" x1="13.3345" y1="4.1499" x2="13.3345" y2="27.4409">
		<stop  offset="0" style="stop-color:#FFFFE2"/>
		<stop  offset="1" style="stop-color:#FFDC76"/>
	</linearGradient>
	<path fill="url(#SVGID_1_)" stroke="#000000" stroke-width="0.75" stroke-linejoin="round" d="M1.041,27.44L0.735,7.346
		c0,0,1.47-3.039,2.177-3.039c0.707,0,6.735-0.157,6.735-0.157c0.731,0.012,1.785,2.699,2.587,2.687
		c0.908-0.012,12.138-0.29,12.138-0.29c0.662,0,0.986,0.153,1.047,0.839l0.515,18.769L1.041,27.44L1.041,27.44z"/>
	<path fill="#FFFFFF" d="M1.38,25.229L1.128,7.405c0,0,0.887-1.934,1.813-2.728c0,0,6.421-0.141,6.687-0.141
		c0.379,0,1.688,2.682,2.492,2.682c0.477,0,12.34-0.284,12.34-0.284c0.607,0,0.584,0.245,0.584,0.688
		C24.76,7.63,12.851,7.96,12.372,7.96c-1.356,0-2.59-2.714-2.917-2.694S3.248,5.452,3.248,5.452c-0.476,0.475-1.412,2.27-1.412,2.27
		l0.239,17.354L1.38,25.229L1.38,25.229z"/>
	<path fill="#7F7F7F" d="M1.354,22.593l1.923-9.397c0,0,0.724-1.987,2.141-1.987c0,0,6.81-0.365,7.075-0.365
		c0.266,0,1.89-1.947,2.366-1.96c0.477-0.015,10.262-0.289,10.262-0.289c0,0.372,0.016,0.696,0.016,0.696s-9.545,0.335-10.025,0.335
		c-0.48,0-2.173,1.927-2.5,1.947c-0.327,0.021-6.887,0.409-6.887,0.409c-0.928,0.151-1.353,0.849-1.353,0.849L1.38,25.229
		l-0.026-1.86V22.593z"/>
	<linearGradient id="SVGID_2_" gradientUnits="userSpaceOnUse" x1="16.1855" y1="9.3052" x2="16.1855" y2="27.4409">
		<stop  offset="0" style="stop-color:#FFFFE2"/>
		<stop  offset="1" style="stop-color:#FFDC76"/>
	</linearGradient>
	<path fill="url(#SVGID_2_)" stroke="#000000" stroke-width="0.75" stroke-linejoin="round" stroke-miterlimit="3.8637" d="
		M1.041,27.44l3.193-14.128c0.337-0.781,0.898-1.249,1.982-1.32l6.397-0.309c0.731,0.012,1.986-1.984,2.789-1.995
		C16.31,9.674,30.67,9.305,30.67,9.305c0.662,0.057,0.697,0.492,0.645,1.176l-5.38,15.674L1.041,27.44z"/>
	<path fill="#FFFFFF" d="M1.535,27.084l3.069-13.622c0,0,0.184-0.826,1.327-1.1c0,0,6.81-0.365,7.075-0.365
		c0.266,0,1.89-1.947,2.366-1.96c0.477-0.015,15.209-0.36,15.209-0.36c0.566,0,0.362,0.688,0.362,0.688S16.104,10.78,15.624,10.78
		c-0.48,0-2.173,1.927-2.5,1.947c-0.327,0.021-6.887,0.409-6.887,0.409c-0.928,0.151-0.924,0.644-0.924,0.644L2.229,26.935
		L1.535,27.084L1.535,27.084z"/>
</g>
</svg>
