<?xml version="1.0" encoding="utf-8"?>
<!-- Generator: Adobe Illustrator 13.0.2, SVG Export Plug-In . SVG Version: 6.00 Build 14948)  -->
<svg version="1.2" baseProfile="tiny" id="Layer_7" xmlns="http://www.w3.org/2000/svg" xmlns:xlink="http://www.w3.org/1999/xlink"
	 x="0px" y="0px" width="32px" height="32px" viewBox="0 0 32 32" xml:space="preserve">
<g>
	<g>
		<polygon fill="#FFFFFF" points="26.806,29.469 5.249,29.469 5.249,2.474 26.806,2.474 26.806,29.469 		"/>
		<path d="M27.806,1.476v28.992H4.25V1.476H27.806 M25.806,3.476H6.25v24.992h19.556V3.476L25.806,3.476z"/>
	</g>
	<path d="M12.291,18.236H8.667v-3.624h3.624V18.236z M12.291,19.143H8.667v3.624h3.624V19.143z M12.291,23.673H8.667v3.624h3.624
		V23.673z M17.727,14.613h-3.624v3.624h3.624V14.613z M23.163,14.613h-3.624v3.624h3.624V14.613z M23.163,19.143h-3.624v8.154h3.624
		V19.143z M17.727,19.143h-3.624v3.624h3.624V19.143z M17.727,23.673h-3.624v3.624h3.624V23.673z M24.408,5.1H7.647v8.041h16.761
		V5.1z"/>
	<path fill="#FFFFFF" d="M21.578,11.441h-1.926V7.138h1.926V11.441z M17.953,7.138h-1.925v4.303h1.925V7.138z M14.33,7.138h-1.925
		v4.303h1.925V7.138z"/>
</g>
</svg>
