<?xml version="1.0" encoding="utf-8"?>
<!-- Generator: Adobe Illustrator 13.0.2, SVG Export Plug-In . SVG Version: 6.00 Build 14948)  -->
<svg version="1.2" baseProfile="tiny" id="Layer_4" xmlns="http://www.w3.org/2000/svg" xmlns:xlink="http://www.w3.org/1999/xlink"
	 x="0px" y="0px" width="32px" height="32px" viewBox="0 0 32 32" xml:space="preserve">
<g>
	<radialGradient id="SVGID_1_" cx="27.332" cy="27.5" r="3.9175" gradientUnits="userSpaceOnUse">
		<stop  offset="0" style="stop-color:#FFFFFF"/>
		<stop  offset="0.1712" style="stop-color:#FCFCFC"/>
		<stop  offset="0.3026" style="stop-color:#F2F2F2"/>
		<stop  offset="0.421" style="stop-color:#E2E2E2"/>
		<stop  offset="0.5315" style="stop-color:#CBCBCB"/>
		<stop  offset="0.6367" style="stop-color:#ADADAD"/>
		<stop  offset="0.7379" style="stop-color:#888888"/>
		<stop  offset="0.8358" style="stop-color:#5C5C5C"/>
		<stop  offset="0.9288" style="stop-color:#2B2B2B"/>
		<stop  offset="1" style="stop-color:#000000"/>
	</radialGradient>
	<path fill="url(#SVGID_1_)" d="M27.334,31.417c-2.161,0-3.919-1.758-3.919-3.916c0-2.161,1.758-3.919,3.919-3.919
		c2.158,0,3.916,1.758,3.916,3.919C31.25,29.659,29.492,31.417,27.334,31.417L27.334,31.417z"/>
	<path d="M27.333,23.208c2.37,0,4.292,1.922,4.292,4.292s-1.922,4.292-4.292,4.292s-4.292-1.922-4.292-4.292
		S24.963,23.208,27.333,23.208 M27.333,23.958c-1.953,0-3.542,1.589-3.542,3.542s1.589,3.542,3.542,3.542s3.542-1.589,3.542-3.542
		S29.286,23.958,27.333,23.958L27.333,23.958z"/>
</g>
<g>
	<linearGradient id="SVGID_2_" gradientUnits="userSpaceOnUse" x1="6.2476" y1="28.1396" x2="6.2476" y2="6.6436">
		<stop  offset="0" style="stop-color:#007900"/>
		<stop  offset="1" style="stop-color:#00A200"/>
	</linearGradient>
	<path fill="url(#SVGID_2_)" d="M4.448,28.14c-0.531-1.664-3.182-10.208-3.182-14.514c0-4.071,1.627-6.357,2.047-6.878l7.916-0.105
		c-1.857,1.203-5.224,3.812-5.792,7.187c-0.639,3.824-0.049,12.308,0.093,14.207L4.448,28.14L4.448,28.14z"/>
	<path d="M12.621,6.25c0,0-6.062,3.172-6.812,7.641c-0.71,4.232,0.125,14.484,0.125,14.484l-1.75,0.166
		c0,0-3.292-10.041-3.292-14.916s2.246-7.25,2.246-7.25L12.621,6.25 M10.007,7.035L3.499,7.12c-0.504,0.679-1.857,2.842-1.857,6.505
		c0,4.045,2.387,11.932,3.073,14.112l0.416-0.039c-0.178-2.454-0.674-10.275-0.061-13.932C5.563,10.821,8.083,8.452,10.007,7.035
		L10.007,7.035z"/>
</g>
<g>
	<linearGradient id="SVGID_3_" gradientUnits="userSpaceOnUse" x1="27.6807" y1="26.5781" x2="9.8594" y2="0.6337">
		<stop  offset="0" style="stop-color:#78FF78"/>
		<stop  offset="1" style="stop-color:#00DC00"/>
	</linearGradient>
	<path fill="url(#SVGID_3_)" d="M27.431,26.749l-15.933-8.981l5.352-2.519l0.324-0.152l-0.139-0.332
		c-0.047-0.113-1.18-2.806-3.434-5.148C11.496,7.427,9.745,7.13,8.313,7.13c-0.291,0-0.579,0.015-0.865,0.035
		c-2.628,0.193-4.795,2.383-5.943,3.811C2.051,8.01,4.156,1.534,12.109,1.534c9.929,0,12.833,9.325,12.862,9.42l0.125,0.42
		l0.396-0.189l5.319-2.555L27.431,26.749L27.431,26.749z"/>
	<path d="M12.11,1.16c10.322,0,13.219,9.687,13.219,9.687l5.987-2.873l-3.614,19.361L10.68,17.737l6.009-2.829
		c0,0-1.128-2.712-3.358-5.032c-1.885-1.96-3.482-2.369-5.018-2.369c-0.281,0-0.56,0.014-0.839,0.034
		c-3.697,0.271-6.529,4.854-6.529,4.854S1.527,1.16,12.11,1.16 M12.11,1.91c-6.586,0-9.016,4.597-9.907,7.718
		c1.27-1.3,3.094-2.679,5.217-2.835c0.297-0.021,0.594-0.036,0.894-0.036c1.424,0,3.343,0.295,5.558,2.599
		c2.302,2.394,3.462,5.148,3.511,5.264l0.274,0.662l-0.647,0.305l-4.695,2.21l14.844,8.37l3.15-16.877l-4.654,2.233l-0.789,0.378
		l-0.253-0.839C24.498,10.688,21.732,1.91,12.11,1.91L12.11,1.91z"/>
</g>
</svg>
