<?xml version="1.0" encoding="utf-8"?>
<!-- Generator: Adobe Illustrator 13.0.2, SVG Export Plug-In . SVG Version: 6.00 Build 14948)  -->
<svg version="1.2" baseProfile="tiny" id="Layer_4" xmlns="http://www.w3.org/2000/svg" xmlns:xlink="http://www.w3.org/1999/xlink"
	 x="0px" y="0px" width="32px" height="32px" viewBox="0 0 32 32" xml:space="preserve">
<g>
	<radialGradient id="SVGID_1_" cx="27.334" cy="27.5" r="3.917" gradientUnits="userSpaceOnUse">
		<stop  offset="0" style="stop-color:#FFFFFF"/>
		<stop  offset="0.1712" style="stop-color:#FCFCFC"/>
		<stop  offset="0.3026" style="stop-color:#F2F2F2"/>
		<stop  offset="0.421" style="stop-color:#E2E2E2"/>
		<stop  offset="0.5315" style="stop-color:#CBCBCB"/>
		<stop  offset="0.6367" style="stop-color:#ADADAD"/>
		<stop  offset="0.7379" style="stop-color:#888888"/>
		<stop  offset="0.8358" style="stop-color:#5C5C5C"/>
		<stop  offset="0.9288" style="stop-color:#2B2B2B"/>
		<stop  offset="1" style="stop-color:#000000"/>
	</radialGradient>
	<path fill="url(#SVGID_1_)" d="M27.332,31.417c-2.158,0-3.916-1.758-3.916-3.916c0-2.161,1.758-3.919,3.916-3.919
		c2.161,0,3.919,1.758,3.919,3.919C31.251,29.659,29.493,31.417,27.332,31.417L27.332,31.417z"/>
	<path d="M27.333,23.208c2.37,0,4.292,1.922,4.292,4.292s-1.922,4.292-4.292,4.292s-4.292-1.922-4.292-4.292
		S24.963,23.208,27.333,23.208 M27.333,23.958c-1.953,0-3.542,1.589-3.542,3.542s1.589,3.542,3.542,3.542s3.542-1.589,3.542-3.542
		S29.286,23.958,27.333,23.958L27.333,23.958z"/>
</g>
<g>
	<linearGradient id="SVGID_2_" gradientUnits="userSpaceOnUse" x1="26.0605" y1="28.1387" x2="26.0605" y2="6.644">
		<stop  offset="0" style="stop-color:#780000"/>
		<stop  offset="1" style="stop-color:#A00000"/>
	</linearGradient>
	<path fill="url(#SVGID_2_)" d="M27.859,28.139l-1.082-0.101c0.145-1.901,0.733-10.384,0.093-14.209
		c-0.566-3.372-3.935-5.982-5.79-7.185l7.914,0.105c0.42,0.521,2.048,2.806,2.048,6.876C31.042,17.932,28.391,26.477,27.859,28.139
		L27.859,28.139z"/>
	<path d="M19.688,6.25l9.483,0.125c0,0,2.246,2.375,2.246,7.25s-3.292,14.916-3.292,14.916l-1.75-0.166
		c0,0,0.835-10.252,0.125-14.484C25.75,9.422,19.688,6.25,19.688,6.25 M22.302,7.035c1.923,1.417,4.443,3.786,4.938,6.732
		c0.613,3.656,0.117,11.479-0.061,13.932l0.415,0.039c0.686-2.181,3.073-10.067,3.073-14.112c0-3.697-1.35-5.835-1.854-6.505
		L22.302,7.035L22.302,7.035z"/>
</g>
<g>
	<linearGradient id="SVGID_3_" gradientUnits="userSpaceOnUse" x1="5.9932" y1="27.3936" x2="21.5271" y2="0.488">
		<stop  offset="0" style="stop-color:#FF7878"/>
		<stop  offset="1" style="stop-color:#DC0000"/>
	</linearGradient>
	<path fill="url(#SVGID_3_)" d="M4.878,26.75L1.496,8.631l5.321,2.552l0.396,0.189l0.125-0.42c0.117-0.383,2.946-9.418,12.86-9.418
		c7.954,0,10.059,6.477,10.604,9.442c-1.146-1.427-3.312-3.617-5.94-3.811c-0.288-0.021-0.577-0.035-0.867-0.035
		c-1.434,0-3.183,0.297-5.286,2.484c-2.253,2.344-3.388,5.034-3.436,5.148l-0.138,0.332l0.323,0.152l5.352,2.521L4.878,26.75
		L4.878,26.75z"/>
	<path d="M20.198,1.16c10.583,0,11.165,11.235,11.165,11.235s-2.832-4.582-6.529-4.854c-0.278-0.021-0.558-0.034-0.839-0.034
		c-1.535,0-3.133,0.409-5.018,2.369c-2.23,2.32-3.358,5.032-3.358,5.032l6.009,2.829L4.605,27.335L0.991,7.974l5.987,2.873
		C6.979,10.846,9.876,1.16,20.198,1.16 M20.198,1.91c-9.652,0-12.474,9.06-12.501,9.151l-0.252,0.841l-0.791-0.379L2,9.29
		l3.15,16.877l14.844-8.37l-4.694-2.21l-0.648-0.305l0.275-0.662c0.048-0.116,1.208-2.87,3.51-5.264
		c2.216-2.304,4.134-2.599,5.559-2.599l0,0c0.3,0,0.597,0.015,0.894,0.036c2.118,0.156,3.938,1.528,5.208,2.826
		C29.197,6.498,26.759,1.91,20.198,1.91L20.198,1.91z"/>
</g>
</svg>
