<?xml version="1.0" encoding="utf-8"?>
<!-- Generator: Adobe Illustrator 13.0.2, SVG Export Plug-In . SVG Version: 6.00 Build 14948)  -->
<svg version="1.2" baseProfile="tiny" id="Layer_1" xmlns="http://www.w3.org/2000/svg" xmlns:xlink="http://www.w3.org/1999/xlink"
	 x="0px" y="0px" width="139.996px" height="31.996px" viewBox="0 0 139.996 31.996" xml:space="preserve">
<g>
	<path fill-rule="evenodd" fill="#E6E6E5" d="M131.997,30.496H8c-3.583,0-6.5-2.916-6.5-6.499V7.999C1.501,4.416,4.417,1.5,8,1.5
		h123.997c3.583,0,6.499,2.916,6.499,6.499v15.998C138.496,27.58,135.58,30.496,131.997,30.496L131.997,30.496z"/>
	<path fill="#3B4CA0" d="M131.996,3c2.762,0,5,2.239,5,5v15.996c0,2.762-2.238,5-5,5H8c-2.761,0-5-2.238-5-5V8c0-2.761,2.239-5,5-5
		H131.996 M131.996,0H8C3.589,0,0,3.589,0,8v15.996c0,4.411,3.589,8,8,8h123.996c4.411,0,8-3.589,8-8V8
		C139.996,3.589,136.407,0,131.996,0L131.996,0z"/>
</g>
</svg>
