<?xml version="1.0" encoding="utf-8"?>
<!-- Generator: Adobe Illustrator 13.0.2, SVG Export Plug-In . SVG Version: 6.00 Build 14948)  -->
<!DOCTYPE svg PUBLIC "-//W3C//DTD SVG 1.0//EN" "http://www.w3.org/TR/2001/REC-SVG-20010904/DTD/svg10.dtd">
<svg version="1.0" id="Layer_1" xmlns="http://www.w3.org/2000/svg" xmlns:xlink="http://www.w3.org/1999/xlink" x="0px" y="0px"
	 width="38.012px" height="41.926px" viewBox="0 0 38.012 41.926" enable-background="new 0 0 38.012 41.926" xml:space="preserve">
<g>
	<path fill-rule="evenodd" clip-rule="evenodd" fill="#E6E6E5" d="M1.521,32.997c-0.186,0-0.373-0.035-0.552-0.105
		c-0.57-0.229-0.947-0.776-0.947-1.392L0.013,15.334C0.013,5.267,9.739,0,19.345,0c8.991,0,18.667,4.798,18.667,15.335V31.5
		c0,0.62-0.381,1.171-0.96,1.396c-0.175,0.068-0.358,0.101-0.539,0.101c-0.414,0-0.822-0.173-1.112-0.49
		c-0.049-0.056-5.164-5.508-16.284-5.508c-11.14,0-16.449,5.473-16.502,5.527C2.323,32.832,1.926,32.997,1.521,32.997L1.521,32.997z
		"/>
	<path fill="#4CB748" d="M19.345,1.5c8.637,0,17.167,4.499,17.167,13.835V31.5c0,0-5.378-6-17.396-6s-17.597,6-17.597,6
		L1.512,15.334C1.512,6.233,10.485,1.5,19.345,1.5 M19.345-1.5C19.345-1.5,19.345-1.5,19.345-1.5
		C8.992-1.5-1.488,4.282-1.488,15.334l0.008,16.167c0,1.223,0.753,2.312,1.887,2.77c0.36,0.146,0.738,0.216,1.113,0.216
		c0.806,0,1.599-0.324,2.178-0.924C3.897,33.356,8.707,28.5,19.116,28.5c10.387,0,15.117,4.952,15.161,5.002
		c0.581,0.647,1.398,0.998,2.235,0.998c0.359,0,0.722-0.064,1.071-0.198c1.161-0.444,1.928-1.559,1.928-2.802V15.334
		c0-5.332-2.283-9.779-6.602-12.86C29.318-0.089,24.5-1.5,19.345-1.5L19.345-1.5z"/>
</g>
<path fill-rule="evenodd" clip-rule="evenodd" fill="none" stroke="#4CB748" stroke-width="3" stroke-linecap="round" stroke-linejoin="round" d="
	M36.492,40.426c0,0-5.815-8-17.396-8s-17.597,8-17.597,8"/>
</svg>
