<?xml version="1.0" encoding="utf-8"?>
<!-- Generator: Adobe Illustrator 13.0.2, SVG Export Plug-In  -->
<!DOCTYPE svg PUBLIC "-//W3C//DTD SVG 1.1//EN" "http://www.w3.org/Graphics/SVG/1.1/DTD/svg11.dtd" [
	<!ENTITY ns_flows "http://ns.adobe.com/Flows/1.0/">
]>
<svg version="1.1"
	 xmlns="http://www.w3.org/2000/svg" xmlns:xlink="http://www.w3.org/1999/xlink" xmlns:a="http://ns.adobe.com/AdobeSVGViewerExtensions/3.0/"
	 x="0px" y="0px" width="41px" height="44px" viewBox="0 0 41 44" enable-background="new 0 0 41 44" xml:space="preserve">
<defs>
</defs>
<g>
	<path fill-rule="evenodd" clip-rule="evenodd" fill="#E6E6E5" d="M3.009,34.497c-0.186,0-0.373-0.035-0.552-0.105
		C1.886,34.163,1.51,33.616,1.51,33L1.501,16.835C1.501,6.768,11.227,1.5,20.833,1.5C29.824,1.5,39.5,6.298,39.5,16.835V33
		c0,0.62-0.381,1.171-0.96,1.396c-0.175,0.068-0.358,0.101-0.539,0.101c-0.414,0-0.822-0.173-1.112-0.49
		c-0.049-0.056-5.164-5.508-16.284-5.508c-11.14,0-16.449,5.473-16.502,5.527C3.812,34.332,3.415,34.497,3.009,34.497L3.009,34.497z
		"/>
	<path fill="#4CB748" d="M20.833,3C29.471,3,38,7.499,38,16.835V33c0,0-5.378-6-17.396-6S3.008,33,3.008,33L3,16.835
		C3,7.733,11.974,3,20.833,3 M20.833,0C20.833,0,20.833,0,20.833,0C10.48,0,0,5.783,0,16.835l0.008,16.167
		c0,1.223,0.753,2.312,1.887,2.77c0.36,0.146,0.738,0.216,1.113,0.216c0.806,0,1.599-0.324,2.178-0.924
		C5.385,34.856,10.195,30,20.604,30c10.387,0,15.117,4.952,15.161,5.002C36.347,35.65,37.164,36,38.001,36
		c0.359,0,0.722-0.064,1.071-0.198C40.233,35.358,41,34.243,41,33V16.835c0-5.332-2.283-9.779-6.602-12.86
		C30.807,1.412,25.989,0,20.833,0L20.833,0z"/>
</g>
<path fill="#4CB748" d="M36.767,42.808c-0.002,0.002-0.054-0.076-0.214-0.268l0,0c-0.158-0.191-0.407-0.475-0.741-0.821l0,0
	c-0.666-0.692-1.684-1.624-3.039-2.559l0,0c-2.715-1.869-6.751-3.733-12.188-3.735l0,0c-9.483-0.012-14.999,5.759-16.174,7.131l0,0
	c-0.167,0.193-0.222,0.27-0.222,0.272l0,0c-0.498,0.661-1.439,0.794-2.102,0.296l0,0c-0.663-0.498-0.796-1.438-0.296-2.101l0,0
	c0.117-0.148,6.464-8.572,18.794-8.599l0,0c12.334,0.027,18.494,8.463,18.609,8.619l0,0c0.487,0.671,0.338,1.609-0.331,2.095l0,0
	c-0.268,0.194-0.576,0.287-0.882,0.287l0,0C37.517,43.426,37.06,43.212,36.767,42.808L36.767,42.808z"/>
</svg>
