<?xml version="1.0" encoding="utf-8"?>
<!-- Generator: Adobe Illustrator 13.0.2, SVG Export Plug-In . SVG Version: 6.00 Build 14948)  -->
<svg version="1.2" baseProfile="tiny" id="Layer_1" xmlns="http://www.w3.org/2000/svg" xmlns:xlink="http://www.w3.org/1999/xlink"
	 x="0px" y="0px" width="41px" height="43.83px" viewBox="0 0 41 43.83" xml:space="preserve">
<g>
	<path fill-rule="evenodd" fill="#E6E6E5" d="M2.997,42.347c-0.061,0-0.12-0.002-0.18-0.011c-0.752-0.093-1.319-0.727-1.319-1.484
		V16.835C1.498,6.767,11.225,1.5,20.832,1.5C29.823,1.5,39.5,6.299,39.5,16.835l-0.006,24.017c-0.002,0.765-0.576,1.4-1.334,1.484
		c-0.058,0.007-0.113,0.011-0.169,0.011c-0.691,0-1.305-0.482-1.462-1.17c-0.083-0.36-2.183-8.823-15.933-8.823
		c-13.775,0-16.049,8.49-16.14,8.851C4.289,41.879,3.681,42.347,2.997,42.347L2.997,42.347z"/>
	<path fill="#4CB748" d="M20.833,3C29.471,3,38,7.499,38,16.835l-0.008,24.018c0,0-2.146-10-17.396-10S3,40.853,3,40.853V16.835
		C3,7.733,11.974,3,20.833,3 M20.833,0C10.48,0,0,5.783,0,16.835v24.018c0,1.507,1.123,2.758,2.617,2.953
		c0.129,0.017,0.257,0.024,0.384,0.024c1.347,0,2.557-0.921,2.91-2.252c0.083-0.315,2.193-7.726,14.686-7.726
		c12.443,0,14.395,7.357,14.472,7.671c0.333,1.356,1.556,2.307,2.923,2.307c0.117,0,0.236-0.008,0.355-0.021
		c1.507-0.183,2.646-1.438,2.646-2.955L41,16.836c0-5.333-2.283-9.78-6.602-12.861C30.806,1.412,25.988,0,20.833,0L20.833,0z"/>
</g>
</svg>
