<?xml version="1.0" encoding="utf-8"?>
<!-- Generator: Adobe Illustrator 13.0.2, SVG Export Plug-In . SVG Version: 6.00 Build 14948)  -->
<svg version="1.2" baseProfile="tiny" id="Layer_1" xmlns="http://www.w3.org/2000/svg" xmlns:xlink="http://www.w3.org/1999/xlink"
	 x="0px" y="0px" width="149.493px" height="38.996px" viewBox="0 0 149.493 38.996" xml:space="preserve">
<g>
	<g>
		<path fill-rule="evenodd" fill="#E6E6E5" d="M130.364,37.496H5.871c-2.023,0-3.087-0.914-3.622-1.679
			c-0.917-1.311-0.993-3.205-0.218-5.335l9.639-23.06c1.3-3.572,4.237-5.923,7.459-5.923h124.495c2.021,0,3.085,0.914,3.621,1.679
			c0.917,1.31,0.995,3.205,0.22,5.336l-9.638,23.06C136.524,35.146,133.586,37.496,130.364,37.496L130.364,37.496z"/>
	</g>
	<g>
		<path fill="#EC2426" d="M143.623,3c2.761,0,3.437,2.239,2.431,5l-9.613,22.996c-1.008,2.762-3.315,5-6.076,5H5.87
			c-2.762,0-3.437-2.238-2.43-5L13.053,8c1.007-2.761,3.314-5,6.076-5H143.623 M143.623,0H19.129c-3.837,0-7.312,2.707-8.869,6.903
			L0.672,29.839l-0.027,0.064l-0.023,0.065c-0.949,2.603-0.808,4.985,0.398,6.709c1.046,1.495,2.769,2.318,4.851,2.318h124.494
			c3.837,0,7.311-2.707,8.869-6.902l9.588-22.937l0.027-0.064l0.023-0.066c0.948-2.603,0.807-4.986-0.399-6.708
			C147.426,0.823,145.704,0,143.623,0L143.623,0z"/>
	</g>
</g>
</svg>
