<?xml version="1.0" encoding="utf-8"?>
<!-- Generator: Adobe Illustrator 13.0.2, SVG Export Plug-In . SVG Version: 6.00 Build 14948)  -->
<svg version="1.2" baseProfile="tiny" id="Layer_2" xmlns="http://www.w3.org/2000/svg" xmlns:xlink="http://www.w3.org/1999/xlink"
	 x="0px" y="0px" width="57.666px" height="57.669px" viewBox="0 0 57.666 57.669" xml:space="preserve">
<g>
	<g>
		<path fill="#FF0000" d="M52.342,0.5H24.546c-2.665,0-4.826,2.161-4.826,4.826v13.397C9.105,18.725,0.5,27.33,0.5,37.946
			s8.606,19.223,19.222,19.223s19.223-8.606,19.223-19.223v-0.003h13.396c2.662,0,4.824-2.159,4.824-4.824V5.326
			C57.166,2.661,55.004,0.5,52.342,0.5z M19.723,51.947c-7.732,0-14.001-6.269-14.001-14s6.269-14,14.001-14c7.731,0,14,6.269,14,14
			S27.455,51.947,19.723,51.947z"/>
	</g>
	<g>
		<path fill="none" stroke="#000000" d="M52.342,0.5H24.546c-2.665,0-4.826,2.161-4.826,4.826v13.397
			C9.105,18.725,0.5,27.33,0.5,37.946s8.606,19.223,19.222,19.223s19.223-8.606,19.223-19.223v-0.003h13.396
			c2.662,0,4.824-2.159,4.824-4.824V5.326C57.166,2.661,55.004,0.5,52.342,0.5z M19.723,51.947c-7.732,0-14.001-6.269-14.001-14
			s6.269-14,14.001-14c7.731,0,14,6.269,14,14S27.455,51.947,19.723,51.947z"/>
	</g>
</g>
</svg>
